{
  "accessors": [
    {
      "bufferView": 2,
      "componentType": 5126,
      "count": 1679,
      "max": [
        0.9489549994468689,
        0.9319424033164978,
        0.025003431364893913
      ],
      "min": [
        -0.937371551990509,
        -0.9489549398422241,
        3.6621649996959604e-06
      ],
      "type": "VEC3"
    },
    {
      "bufferView": 2,
      "byteOffset": 20148,
      "componentType": 5126,
      "count": 1679,
      "max": [
        0.3130919337272644,
        0.4130054712295532,
        0.9999995231628418
      ],
      "min": [
        -0.3260693848133087,
        -0.29413628578186035,
        0.9107077121734619
      ],
      "type": "VEC3"
    },
    {
      "bufferView": 3,
      "componentType": 5126,
      "count": 1679,
      "max": [
        1.0,
        0.008898337371647358,
        0.3260793387889862,
        1.0
      ],
      "min": [
        0.9453424215316772,
        -0.011562050320208073,
        -0.3131254017353058,
        1.0
      ],
      "type": "VEC4"
    },
    {
      "bufferView": 1,
      "componentType": 5126,
      "count": 1679,
      "max": [
        0.9994500279426575,
        0.990496039390564
      ],
      "min": [
        0.006646543741226196,
        0.000550001859664917
      ],
      "type": "VEC2"
    },
    {
      "bufferView": 1,
      "byteOffset": 13432,
      "componentType": 5126,
      "count": 1679,
      "max": [
        0.9994500279426575,
        0.990496039390564
      ],
      "min": [
        0.006646543741226196,
        0.000550001859664917
      ],
      "type": "VEC2"
    },
    {
      "bufferView": 0,
      "componentType": 5125,
      "count": 9729,
      "type": "SCALAR"
    },
    {
      "bufferView": 2,
      "byteOffset": 40296,
      "componentType": 5126,
      "count": 589,
      "max": [
        0.9557110071182251,
        0.9386039972305298,
        0.02002471685409546
      ],
      "min": [
        -0.9440320730209351,
        -0.9556713104248047,
        -0.07899674773216248
      ],
      "type": "VEC3"
    },
    {
      "bufferView": 2,
      "byteOffset": 47364,
      "componentType": 5126,
      "count": 589,
      "max": [
        0.9969325065612793,
        0.9972981810569763,
        0.26878225803375244
      ],
      "min": [
        -0.9974263310432434,
        -0.998167872428894,
        -0.5764168500900269
      ],
      "type": "VEC3"
    },
    {
      "bufferView": 1,
      "byteOffset": 26864,
      "componentType": 5126,
      "count": 589,
      "max": [
        1.6930519342422485,
        0.5045405626296997
      ],
      "min": [
        -0.7177267074584961,
        0.3415068984031677
      ],
      "type": "VEC2"
    },
    {
      "bufferView": 0,
      "byteOffset": 38916,
      "componentType": 5125,
      "count": 2712,
      "type": "SCALAR"
    },
    {
      "bufferView": 2,
      "byteOffset": 54432,
      "componentType": 5126,
      "count": 392,
      "max": [
        1.2101540565490723,
        1.207332968711853,
        0.0
      ],
      "min": [
        -1.2101540565490723,
        -1.207332968711853,
        -0.10328379273414612
      ],
      "type": "VEC3"
    },
    {
      "bufferView": 2,
      "byteOffset": 59136,
      "componentType": 5126,
      "count": 392,
      "max": [
        1.0,
        0.9976688623428345,
        0.918184757232666
      ],
      "min": [
        -1.0,
        -0.9976688623428345,
        -0.918184757232666
      ],
      "type": "VEC3"
    },
    {
      "bufferView": 3,
      "byteOffset": 26864,
      "componentType": 5126,
      "count": 392,
      "max": [
        0.9996345639228821,
        1.0,
        0.9260295033454895,
        1.0
      ],
      "min": [
        -0.9996345639228821,
        -1.0,
        -0.926029622554779,
        1.0
      ],
      "type": "VEC4"
    },
    {
      "bufferView": 1,
      "byteOffset": 31576,
      "componentType": 5126,
      "count": 392,
      "max": [
        0.9317721128463745,
        0.927962064743042
      ],
      "min": [
        0.0682278573513031,
        0.07743480801582336
      ],
      "type": "VEC2"
    },
    {
      "bufferView": 1,
      "byteOffset": 34712,
      "componentType": 5126,
      "count": 392,
      "max": [
        0.9317721128463745,
        0.927962064743042
      ],
      "min": [
        0.0682278573513031,
        0.07743480801582336
      ],
      "type": "VEC2"
    },
    {
      "bufferView": 0,
      "byteOffset": 49764,
      "componentType": 5125,
      "count": 1644,
      "type": "SCALAR"
    }
  ],
  "asset": {
    "extras": {
      "author": "P3TroV (https://sketchfab.com/P3TroV)",
      "license": "CC-BY-4.0 (http://creativecommons.org/licenses/by/4.0/)",
      "source": "https://sketchfab.com/3d-models/free-pizza-636d6a9279e24242914799709502b258",
      "title": "Free Pizza"
    },
    "generator": "Sketchfab-12.68.0",
    "version": "2.0"
  },
  "bufferViews": [
    {
      "buffer": 0,
      "byteLength": 56340,
      "name": "floatBufferViews",
      "target": 34963
    },
    {
      "buffer": 0,
      "byteLength": 37848,
      "byteOffset": 56340,
      "byteStride": 8,
      "name": "floatBufferViews",
      "target": 34962
    },
    {
      "buffer": 0,
      "byteLength": 63840,
      "byteOffset": 94188,
      "byteStride": 12,
      "name": "floatBufferViews",
      "target": 34962
    },
    {
      "buffer": 0,
      "byteLength": 33136,
      "byteOffset": 158028,
      "byteStride": 16,
      "name": "floatBufferViews",
      "target": 34962
    }
  ],
  "buffers": [
    {
      "byteLength": 191164,
      "uri": "scene.bin"
    }
  ],
  "images": [
    {
      "uri": "textures/01_-_Default_baseColor.png"
    },
    {
      "uri": "textures/01_-_Default_normal.png"
    },
    {
      "uri": "textures/02_-_Default_baseColor.jpeg"
    },
    {
      "uri": "textures/03_-_Default_baseColor.jpeg"
    },
    {
      "uri": "textures/03_-_Default_normal.png"
    }
  ],
  "materials": [
    {
      "doubleSided": true,
      "name": "01_-_Default",
      "normalTexture": {
        "index": 1,
        "scale": 0.5228787971265388
      },
      "pbrMetallicRoughness": {
        "baseColorTexture": {
          "index": 0
        },
        "metallicFactor": 0.0,
        "roughnessFactor": 0.8929713596497552
      }
    },
    {
      "doubleSided": true,
      "name": "02_-_Default",
      "pbrMetallicRoughness": {
        "baseColorTexture": {
          "index": 2
        },
        "metallicFactor": 0.0
      }
    },
    {
      "doubleSided": true,
      "name": "03_-_Default",
      "normalTexture": {
        "index": 4,
        "scale": 0.10469697894472065
      },
      "pbrMetallicRoughness": {
        "baseColorTexture": {
          "index": 3
        },
        "metallicFactor": 0.0,
        "roughnessFactor": 0.16196968772194598
      }
    }
  ],
  "meshes": [
    {
      "name": "Circle001_01 - Default_0",
      "primitives": [
        {
          "attributes": {
            "NORMAL": 1,
            "POSITION": 0,
            "TANGENT": 2,
            "TEXCOORD_0": 3,
            "TEXCOORD_1": 4
          },
          "indices": 5,
          "material": 0,
          "mode": 4
        }
      ]
    },
    {
      "name": "Object_02 - Default_0",
      "primitives": [
        {
          "attributes": {
            "NORMAL": 7,
            "POSITION": 6,
            "TEXCOORD_0": 8
          },
          "indices": 9,
          "material": 1,
          "mode": 4
        }
      ]
    },
    {
      "name": "Cylinder001_03 - Default_0",
      "primitives": [
        {
          "attributes": {
            "NORMAL": 11,
            "POSITION": 10,
            "TANGENT": 12,
            "TEXCOORD_0": 13,
            "TEXCOORD_1": 14
          },
          "indices": 15,
          "material": 2,
          "mode": 4
        }
      ]
    }
  ],
  "nodes": [
    {
      "children": [
        1
      ],
      "matrix": [
        1.0,
        0.0,
        0.0,
        0.0,
        0.0,
        2.220446049250313e-16,
        -1.0,
        0.0,
        0.0,
        1.0,
        2.220446049250313e-16,
        0.0,
        0.0,
        0.0,
        0.0,
        1.0
      ],
      "name": "Sketchfab_model"
    },
    {
      "children": [
        2
      ],
      "matrix": [
        1.0,
        0.0,
        0.0,
        0.0,
        0.0,
        0.0,
        1.0,
        0.0,
        0.0,
        -1.0,
        0.0,
        0.0,
        0.0,
        0.0,
        0.0,
        1.0
      ],
      "name": "79bfc650a20a4ccc8e8716a275122a77.fbx"
    },
    {
      "children": [
        3,
        5,
        7
      ],
      "name": "RootNode"
    },
    {
      "children": [
        4
      ],
      "matrix": [
        1.0,
        0.0,
        0.0,
        0.0,
        0.0,
        2.220446049250313e-16,
        -1.0,
        0.0,
        0.0,
        1.0,
        2.220446049250313e-16,
        0.0,
        0.0,
        0.0,
        0.0,
        1.0
      ],
      "name": "Circle001"
    },
    {
      "mesh": 0,
      "name": "Circle001_01 - Default_0"
    },
    {
      "children": [
        6
      ],
      "matrix": [
        1.0,
        0.0,
        0.0,
        0.0,
        0.0,
        2.220446049250313e-16,
        -1.0,
        0.0,
        0.0,
        1.0,
        2.220446049250313e-16,
        0.0,
        0.0,
        0.0,
        0.0,
        1.0
      ],
      "name": "Object"
    },
    {
      "mesh": 1,
      "name": "Object_02 - Default_0"
    },
    {
      "children": [
        8
      ],
      "matrix": [
        0.9410899877548218,
        0.0,
        0.0,
        0.0,
        0.0,
        2.0896395452992195e-16,
        -0.9410899877548218,
        0.0,
        0.0,
        0.8188490271568298,
        1.8182100872828451e-16,
        0.0,
        0.0,
        -0.08049452304840088,
        -3.5185272473370333e-09,
        1.0
      ],
      "name": "Cylinder001"
    },
    {
      "mesh": 2,
      "name": "Cylinder001_03 - Default_0"
    }
  ],
  "samplers": [
    {
      "magFilter": 9729,
      "minFilter": 9987,
      "wrapS": 10497,
      "wrapT": 10497
    }
  ],
  "scene": 0,
  "scenes": [
    {
      "name": "Sketchfab_Scene",
      "nodes": [
        0
      ]
    }
  ],
  "textures": [
    {
      "sampler": 0,
      "source": 0
    },
    {
      "sampler": 0,
      "source": 1
    },
    {
      "sampler": 0,
      "source": 2
    },
    {
      "sampler": 0,
      "source": 3
    },
    {
      "sampler": 0,
      "source": 4
    }
  ]
}
